<?xml version="1.0" encoding="UTF-8" standalone="no"?>
<!-- Created with Inkscape (http://www.inkscape.org/) -->

<svg
   width="432"
   height="432"
   viewBox="0 0 114.3 114.3"
   version="1.1"
   id="svg1"
   xml:space="preserve"
   inkscape:version="1.4.2 (f4327f4, 2025-05-13)"
   sodipodi:docname="drawing.svg"
   xmlns:inkscape="http://www.inkscape.org/namespaces/inkscape"
   xmlns:sodipodi="http://sodipodi.sourceforge.net/DTD/sodipodi-0.dtd"
   xmlns="http://www.w3.org/2000/svg"
   xmlns:svg="http://www.w3.org/2000/svg"><sodipodi:namedview
     id="namedview1"
     pagecolor="#ffffff"
     bordercolor="#000000"
     borderopacity="0.25"
     inkscape:showpageshadow="2"
     inkscape:pageopacity="0.0"
     inkscape:pagecheckerboard="0"
     inkscape:deskcolor="#d1d1d1"
     inkscape:document-units="mm"
     inkscape:zoom="1.6168981"
     inkscape:cx="201.62062"
     inkscape:cy="351.59914"
     inkscape:window-width="3840"
     inkscape:window-height="2054"
     inkscape:window-x="-11"
     inkscape:window-y="-11"
     inkscape:window-maximized="1"
     inkscape:current-layer="layer1" /><defs
     id="defs1" /><g
     inkscape:label="Layer 1"
     inkscape:groupmode="layer"
     id="layer1"
     style="fill:#000000"><path
       style="fill:#000000;stroke-width:0.658226"
       d="m 35.659081,84.7547 c -3.36285,-0.436595 -6.109282,-2.81228 -6.922109,-5.987686 l -0.182608,-0.713385 v -5.866002 c 0,-3.226306 0.03246,-5.950583 0.07212,-6.053958 0.2643,-0.688754 2.934696,-0.736271 3.297337,-0.05865 0.06945,0.129763 0.113653,2.305791 0.113653,5.594425 v 5.382061 l 0.179941,0.690841 c 0.343983,1.320637 1.153179,2.259399 2.484944,2.882811 l 0.760174,0.35585 1.973763,0.08346 c 1.085569,0.04588 6.319288,0.08706 11.630487,0.09146 l 9.656725,0.008 0.357219,0.300579 0.357219,0.300585 v 1.087198 c 0,1.216754 -0.129216,1.619424 -0.597359,1.861506 l -0.319938,0.165452 -11.064644,-0.01474 C 41.370452,84.856407 36.061836,84.806977 35.65908,84.754714 Z M 71.757088,83.882757 C 68.08459,82.895162 66.672433,79.044535 68.557492,75.158219 l 0.519623,-1.071268 0.825468,-0.817326 0.825474,-0.817325 1.059934,-0.520433 c 1.708517,-0.838895 3.351955,-1.08386 5.64603,-0.841594 l 0.290257,0.03067 0.05806,-10.824468 0.05805,-10.824468 0.369357,-0.369324 0.369357,-0.369324 0.617521,-0.04739 0.617527,-0.04739 0.607944,0.385516 c 0.670357,0.425095 3.662335,2.370712 6.009972,3.908149 1.077634,0.70573 1.831289,1.311883 2.634923,2.119217 l 1.125579,1.130766 0.644548,1.315891 c 1.298173,2.650313 1.649152,5.6972 0.698312,6.062074 -0.837605,0.321419 -1.356643,-0.122601 -1.67583,-1.433608 -0.777792,-3.194679 -2.914708,-5.280583 -6.021056,-5.877337 -1.095446,-0.210448 -1.992364,-0.208954 -2.296148,0.0039 l -0.239133,0.167498 -0.02541,10.426966 -0.02541,10.426959 -0.165472,0.812731 c -0.09101,0.446994 -0.383436,1.256823 -0.649833,1.799602 l -0.484355,0.986884 -0.940111,0.935234 -0.940117,0.935233 -0.942073,0.484704 c -1.582381,0.814144 -3.782171,1.081858 -5.373431,0.653947 z M 44.305403,69.185868 c -0.573514,-0.16039 -1.150933,-0.7413 -1.329597,-1.337626 -0.09989,-0.333411 -0.140687,-1.800906 -0.140687,-5.060893 v -4.591321 l 0.247106,-0.645726 c 0.135907,-0.355153 0.514696,-0.956475 0.841751,-1.336271 0.416588,-0.483776 0.994449,-1.478276 1.929839,-3.321262 1.467951,-2.892289 1.827322,-3.403092 2.712432,-3.855405 l 0.596523,-0.304844 1.178537,-0.06785 c 0.648196,-0.03732 3.652377,-0.04173 6.675963,-0.0098 l 5.497421,0.05805 0.659661,0.323939 c 0.966933,0.474838 1.236503,0.857681 2.78201,3.951033 l 1.40262,2.807352 0.614447,0.550856 c 0.431019,0.386417 0.669764,0.713194 0.799737,1.094642 l 0.185284,0.543786 v 4.819015 4.819015 l -0.246275,0.508729 c -0.1461,0.301804 -0.433053,0.632338 -0.70546,0.812613 l -0.459184,0.303876 -0.963524,0.05055 C 64.589971,69.402984 63.61768,68.528051 63.61768,66.629017 v -0.560275 l -7.691874,0.02982 -7.691866,0.02988 -0.06299,0.886716 -0.06298,0.886715 -0.313855,0.474265 c -0.542688,0.820057 -2.132403,1.189019 -3.488707,0.809703 z m 3.619613,-6.803111 c 0.213234,-0.09903 0.524848,-0.3873 0.692475,-0.640605 l 0.304779,-0.460547 -0.003,-0.595266 c -0.0087,-1.70362 -1.862358,-2.557733 -3.131882,-1.443074 -1.831219,1.607828 -0.08535,4.171906 2.137666,3.139492 z m 17.513737,0.197429 c 0.841871,-0.317397 1.416462,-1.318999 1.255381,-2.188311 -0.35918,-1.93833 -2.951069,-2.2105 -3.729322,-0.391605 -0.647253,1.512728 0.93314,3.160819 2.473941,2.579916 z m -0.291218,-7.017153 c -0.05068,-0.313421 -2.192978,-4.227876 -2.495136,-4.559167 -0.132093,-0.14483 -0.500897,-0.340757 -0.819557,-0.43539 l -0.579384,-0.172054 h -5.486291 c -5.799211,0 -5.889269,0.0078 -6.46657,0.558571 -0.400081,0.381705 -2.681535,4.611443 -2.577841,4.779225 0.05067,0.08199 3.011113,0.110976 9.268386,0.09075 l 9.193938,-0.02975 z m -37.928364,3.076968 c -5.597462,-0.860196 -6.87204,-8.482989 -1.857658,-11.10998 1.339332,-0.701662 3.785641,-1.00594 5.038014,-0.626631 0.216627,0.06563 0.430238,0.09682 0.474692,0.06934 0.04446,-0.02745 0.09216,-4.924087 0.106021,-10.881359 l 0.0252,-10.831405 0.204701,-0.406362 c 0.553636,-1.099053 1.626671,-1.063469 3.381618,0.112142 1.219235,0.816739 3.203154,1.956595 5.086398,2.92237 2.122911,1.088692 2.91475,1.654009 3.678882,2.626491 1.114834,1.418806 1.994263,3.623848 2.112287,5.296255 l 0.06773,0.959752 -0.321692,0.253042 c -0.409301,0.321958 -1.309076,0.348767 -1.673197,0.04983 -0.13613,-0.111747 -0.399633,-0.612809 -0.585563,-1.113468 -1.113496,-2.998343 -3.468202,-4.609712 -7.350379,-5.030003 l -0.669037,-0.07243 -0.230767,0.208842 -0.230766,0.208842 -0.0017,10.924775 -0.0017,10.924775 -0.175343,0.743874 c -0.717597,3.044314 -3.984504,5.246631 -7.077706,4.771274 z M 77.139728,43.784138 c -0.129927,-0.05266 -0.312796,-0.188003 -0.406362,-0.30075 L 76.563241,43.278396 V 38.855278 34.43216 L 76.19468,33.654183 c -0.4689,-0.98978 -1.230684,-1.751571 -2.220471,-2.220472 l -0.777977,-0.368553 -10.101019,-0.02804 c -11.115824,-0.03087 -10.543945,-0.0039 -10.806507,-0.511546 l -0.187242,-0.36209 0.04,-1.020276 0.04,-1.02027 0.283306,-0.301414 c 0.511012,-0.543675 0.537841,-0.54488 11.269013,-0.506275 l 10.159075,0.03653 0.848663,0.313756 c 1.321395,0.488516 2.091506,0.982883 3.112572,1.998084 l 0.942539,0.937129 0.429822,0.855028 c 0.236408,0.470263 0.530654,1.24926 0.653887,1.731101 l 0.22406,0.876072 v 4.558028 c 0,4.9423 0.0081,4.855158 -0.472717,5.103783 -0.359339,0.185824 -2.078927,0.226798 -2.491957,0.05937 z"
       id="path1" /></g></svg>
